<svg xmlns="http://www.w3.org/2000/svg" width="24.77961" height="23.43055" viewBox="0 0 24.77961 23.43055">
  <path d="M18.23994,6.57268a2.08871,2.08871,0,0,0-1.7666.2207A2.10267,2.10267,0,0,0,15.39619,8.224a3.09425,3.09425,0,0,0,.51562,2.14551,3.06847,3.06847,0,0,0,1.61133,1.50586,2.09535,2.09535,0,0,0,1.77149-.19531,2.07311,2.07311,0,0,0,1.05029-1.42773,3.13373,3.13373,0,0,0-.51953-2.169A3.08423,3.08423,0,0,0,18.23994,6.57268Zm6.16492,4.66357L19.55879,2.28008a4.01826,4.01826,0,0,0-5.446-1.62171l-11.896,6.437A4.01781,4.01781,0,0,0,.59516,12.54131l4.84619,8.95617a4.01779,4.01779,0,0,0,5.44593,1.62158L22.78315,16.6823A4.01815,4.01815,0,0,0,24.40486,11.23625ZM11.70478,17.53459,10.155,16.27971,7.319,17.9174l.34473,1.9502-1.51953.87793L4.81172,12.05412l1.51464-.875,6.937,5.45606Zm2.27442-1.31347L9.88349,9.12541l1.43262-.82617,4.0957,7.0957ZM21.944,10.49065a3.81287,3.81287,0,0,1-1.9375,2.41113,3.84955,3.84955,0,0,1-3.07373.4873,4.22881,4.22881,0,0,1-2.46924-2.11914A5.219,5.219,0,0,1,13.737,9.26311a3.87874,3.87874,0,0,1,.09912-1.35449,3.196,3.196,0,0,1,.54834-1.168,4.50746,4.50746,0,0,1,1.36719-1.16309,3.84288,3.84288,0,0,1,3.0708-.47656,4.305,4.305,0,0,1,2.50342,2.16211A4.29258,4.29258,0,0,1,21.944,10.49065ZM9.00508,15.35,6.50752,13.28166l.562,3.18653Z" transform="translate(-0.11016 -0.17351)" style="fill: #010101"/>
</svg>
